<svg id="Calque_1" data-name="Calque 1" xmlns="http://www.w3.org/2000/svg" viewBox="0 0 47.01 48.82"><defs><style>.cls-1{fill:#39495c;}.cls-2{fill:#d65746;}</style></defs><title>Qui_suis_je</title><rect class="cls-1" x="20.39" y="43.23" width="5.59" height="5.59" rx="2.79"/><path class="cls-2" d="M34.13,12.72q-3.5-3.2-9.35-3.19a13,13,0,0,0-8.9,3,11.78,11.78,0,0,0-3.46,5.67,2.56,2.56,0,0,0,4.92,1.4,8.66,8.66,0,0,1,2.29-4,7.36,7.36,0,0,1,5.23-2,7.58,7.58,0,0,1,5.48,2.17,6.81,6.81,0,0,1,2.24,5,5.79,5.79,0,0,1-.77,2.92,16.69,16.69,0,0,1-3.31,3.58A37.61,37.61,0,0,0,25,30.68,11.24,11.24,0,0,0,23,33.87a13.62,13.62,0,0,0-.82,5,2.42,2.42,0,0,0,2.68,2.63A2.54,2.54,0,0,0,27,39.15h0a13.1,13.1,0,0,1,.41-3.07,7,7,0,0,1,1.09-2.32,24.46,24.46,0,0,1,3.13-3.13,23,23,0,0,0,4.8-5.37,9.78,9.78,0,0,0,1.23-4.83A10.1,10.1,0,0,0,34.13,12.72Z" transform="translate(-1.55 -0.5)"/><path class="cls-1" d="M48,17.17a1.91,1.91,0,0,0-2.76-2.65c-1,1-1.76,3.54-2.77,3.81C44.07,18,46.75,18.48,48,17.17Z" transform="translate(-1.55 -0.5)"/><path class="cls-1" d="M42.5,18.33Z" transform="translate(-1.55 -0.5)"/><path class="cls-2" d="M4,13.18a1.84,1.84,0,0,0-1.17,3.48c1.23.42,3.73.31,4.66.69C5.89,16.7,5.61,13.75,4,13.18Z" transform="translate(-1.55 -0.5)"/><path class="cls-2" d="M7.44,17.35Z" transform="translate(-1.55 -0.5)"/><path class="cls-1" d="M18.85,1.55a1.94,1.94,0,1,0-3.46,1.77c.63,1.23,2.82,2.94,3,4C18,5.16,19.69,3.21,18.85,1.55Z" transform="translate(-1.55 -0.5)"/><path class="cls-2" d="M39.1,5.39A1.73,1.73,0,0,0,36,3.93c-.53,1.11-.52,3.58-1.14,4.29C36.09,6.75,38.39,6.88,39.1,5.39Z" transform="translate(-1.55 -0.5)"/></svg>